<?xml version="1.0" encoding="UTF-8"?>
<svg xmlns="http://www.w3.org/2000/svg" xmlns:xlink="http://www.w3.org/1999/xlink" width="555pt" height="300pt" viewBox="0 0 555 300" version="1.1">
<defs>
<clipPath id="clip1">
  <path d="M 7 7 L 548 7 L 548 292 L 7 292 Z M 7 7 "/>
</clipPath>
<clipPath id="clip2">
  <path d="M 7.804688 149.84375 C 7.804688 228.28125 128.589844 291.875 277.578125 291.875 C 426.566406 291.875 547.351562 228.28125 547.351562 149.84375 C 547.351562 71.402344 426.566406 7.8125 277.578125 7.8125 C 128.589844 7.8125 7.804688 71.402344 7.804688 149.84375 "/>
</clipPath>
<radialGradient id="radial0" gradientUnits="userSpaceOnUse" cx="0" cy="0" fx="0" fy="0" r="1" gradientTransform="matrix(354.249523,0,0,354.548721,169.778501,57.745967)">
<stop offset="0" style="stop-color:rgb(68.235294%,69.803922%,83.529412%);stop-opacity:1;"/>
<stop offset="0.3" style="stop-color:rgb(68.235294%,69.803922%,83.529412%);stop-opacity:1;"/>
<stop offset="0.75" style="stop-color:rgb(28.235294%,29.803922%,53.72549%);stop-opacity:1;"/>
<stop offset="1" style="stop-color:rgb(28.235294%,29.803922%,53.72549%);stop-opacity:1;"/>
</radialGradient>
</defs>
<g id="surface1">
<g clip-path="url(#clip1)" clip-rule="nonzero">
<g clip-path="url(#clip2)" clip-rule="nonzero">
<path style=" stroke:none;fill-rule:nonzero;fill:url(#radial0);" d="M 7.804688 149.84375 C 7.804688 228.28125 128.589844 291.875 277.578125 291.875 C 426.566406 291.875 547.351562 228.28125 547.351562 149.84375 C 547.351562 71.402344 426.566406 7.8125 277.578125 7.8125 C 128.589844 7.8125 7.804688 71.402344 7.804688 149.84375 "/>
</g>
</g>
<path style=" stroke:none;fill-rule:nonzero;fill:rgb(46.666667%,48.235294%,70.196078%);fill-opacity:1;" d="M 277.578125 281.328125 C 420.746094 281.328125 536.8125 222.460938 536.8125 149.84375 C 536.8125 77.226562 420.746094 18.355469 277.578125 18.355469 C 134.410156 18.355469 18.34375 77.226562 18.34375 149.84375 C 18.34375 222.460938 134.410156 281.328125 277.578125 281.328125 "/>
<path style=" stroke:none;fill-rule:nonzero;fill:rgb(0%,0%,0%);fill-opacity:1;" d="M 154.375 166.144531 C 166.148438 166.144531 174.9375 163.972656 180.496094 159.6875 C 186 155.449219 189.796875 148.105469 191.789062 137.859375 C 193.644531 128.285156 192.9375 121.597656 189.6875 117.988281 C 186.363281 114.304688 179.175781 112.433594 168.324219 112.433594 L 149.511719 112.433594 L 139.082031 166.144531 Z M 92.84375 232.308594 C 91.96875 232.308594 91.140625 231.917969 90.585938 231.242188 C 90.027344 230.566406 89.804688 229.675781 89.96875 228.820312 L 117.609375 86.484375 C 117.878906 85.109375 119.082031 84.113281 120.484375 84.113281 L 180.058594 84.113281 C 198.78125 84.113281 212.714844 89.203125 221.472656 99.238281 C 230.28125 109.328125 233 123.429688 229.554688 141.152344 C 228.15625 148.375 225.746094 155.078125 222.394531 161.082031 C 219.039062 167.09375 214.601562 172.65625 209.210938 177.617188 C 202.753906 183.664062 195.449219 188.046875 187.515625 190.628906 C 179.703125 193.175781 169.675781 194.464844 157.707031 194.464844 L 133.585938 194.464844 L 126.695312 229.9375 C 126.429688 231.3125 125.226562 232.308594 123.824219 232.308594 Z M 92.84375 232.308594 "/>
<path style=" stroke:none;fill-rule:nonzero;fill:rgb(100%,100%,100%);fill-opacity:1;" d="M 151.925781 115.363281 L 168.328125 115.363281 C 181.421875 115.363281 185.96875 118.238281 187.515625 119.953125 C 190.082031 122.796875 190.5625 128.796875 188.917969 137.304688 C 187.0625 146.824219 183.632812 153.574219 178.710938 157.367188 C 173.675781 161.246094 165.488281 163.214844 154.375 163.214844 L 142.632812 163.214844 Z M 180.058594 81.183594 L 120.484375 81.183594 C 117.679688 81.183594 115.273438 83.171875 114.738281 85.925781 L 87.097656 228.257812 C 86.761719 229.976562 87.214844 231.753906 88.324219 233.105469 C 89.4375 234.453125 91.09375 235.234375 92.84375 235.234375 L 123.824219 235.234375 C 126.625 235.234375 129.035156 233.246094 129.570312 230.496094 L 135.996094 197.394531 L 157.707031 197.394531 C 169.984375 197.394531 180.320312 196.054688 188.421875 193.414062 C 196.757812 190.703125 204.421875 186.109375 211.210938 179.757812 C 216.824219 174.589844 221.445312 168.789062 224.949219 162.511719 C 228.453125 156.238281 230.96875 149.238281 232.429688 141.710938 C 236.054688 123.054688 233.109375 108.113281 223.679688 97.308594 C 214.339844 86.609375 199.660156 81.183594 180.058594 81.183594 M 135.53125 169.074219 L 154.375 169.074219 C 166.867188 169.074219 176.171875 166.71875 182.28125 162.007812 C 188.398438 157.296875 192.519531 149.4375 194.664062 138.417969 C 196.714844 127.839844 195.78125 120.375 191.863281 116.027344 C 187.941406 111.679688 180.09375 109.503906 168.328125 109.503906 L 147.101562 109.503906 L 135.53125 169.074219 M 180.058594 87.042969 C 197.980469 87.042969 211.054688 91.75 219.269531 101.164062 C 227.488281 110.578125 229.960938 123.722656 226.683594 140.59375 C 225.332031 147.542969 223.050781 153.898438 219.839844 159.65625 C 216.621094 165.414062 212.421875 170.683594 207.230469 175.460938 C 201.042969 181.253906 194.171875 185.382812 186.609375 187.839844 C 179.046875 190.308594 169.417969 191.535156 157.707031 191.535156 L 131.171875 191.535156 L 123.824219 229.375 L 92.84375 229.375 L 120.484375 87.042969 L 180.058594 87.042969 "/>
<path style=" stroke:none;fill-rule:nonzero;fill:rgb(0%,0%,0%);fill-opacity:1;" d="M 300.589844 194.464844 C 299.714844 194.464844 298.886719 194.074219 298.332031 193.398438 C 297.773438 192.722656 297.546875 191.835938 297.714844 190.976562 L 309.941406 128 C 311.105469 122.011719 310.820312 117.710938 309.136719 115.894531 C 308.105469 114.785156 305.011719 112.921875 295.859375 112.921875 L 273.707031 112.921875 L 258.335938 192.09375 C 258.066406 193.472656 256.863281 194.464844 255.460938 194.464844 L 224.726562 194.464844 C 223.851562 194.464844 223.023438 194.074219 222.464844 193.398438 C 221.910156 192.722656 221.683594 191.835938 221.851562 190.976562 L 249.492188 48.640625 C 249.757812 47.265625 250.964844 46.273438 252.367188 46.273438 L 283.101562 46.273438 C 283.976562 46.273438 284.804688 46.664062 285.359375 47.335938 C 285.917969 48.011719 286.140625 48.902344 285.976562 49.761719 L 279.304688 84.113281 L 303.132812 84.113281 C 321.289062 84.113281 333.597656 87.316406 340.769531 93.90625 C 348.074219 100.628906 350.355469 111.378906 347.546875 125.859375 L 334.6875 192.09375 C 334.417969 193.472656 333.214844 194.464844 331.8125 194.464844 Z M 300.589844 194.464844 "/>
<path style=" stroke:none;fill-rule:nonzero;fill:rgb(100%,100%,100%);fill-opacity:1;" d="M 283.101562 43.339844 L 252.367188 43.339844 C 249.5625 43.339844 247.152344 45.328125 246.617188 48.082031 L 218.976562 190.417969 C 218.644531 192.136719 219.09375 193.910156 220.207031 195.261719 C 221.320312 196.613281 222.976562 197.394531 224.726562 197.394531 L 255.460938 197.394531 C 258.261719 197.394531 260.671875 195.40625 261.207031 192.652344 L 276.121094 115.851562 L 295.859375 115.851562 C 304.996094 115.851562 306.910156 117.804688 306.988281 117.886719 C 307.542969 118.484375 308.273438 121.25 307.070312 127.441406 L 294.84375 190.417969 C 294.507812 192.136719 294.960938 193.910156 296.070312 195.261719 C 297.183594 196.613281 298.839844 197.394531 300.589844 197.394531 L 331.8125 197.394531 C 334.613281 197.394531 337.023438 195.40625 337.558594 192.652344 L 350.417969 126.417969 C 353.4375 110.871094 350.855469 99.207031 342.75 91.75 C 335.011719 84.640625 322.054688 81.183594 303.132812 81.183594 L 282.855469 81.183594 L 288.847656 50.320312 C 289.179688 48.601562 288.730469 46.824219 287.621094 45.472656 C 286.507812 44.125 284.851562 43.339844 283.101562 43.339844 M 283.101562 49.199219 L 275.753906 87.042969 L 303.132812 87.042969 C 320.363281 87.042969 332.246094 90.050781 338.789062 96.0625 C 345.328125 102.078125 347.285156 111.828125 344.671875 125.300781 L 331.8125 191.535156 L 300.589844 191.535156 L 312.816406 128.558594 C 314.207031 121.394531 313.695312 116.507812 311.28125 113.902344 C 308.863281 111.296875 303.722656 109.992188 295.859375 109.992188 L 271.292969 109.992188 L 255.460938 191.535156 L 224.726562 191.535156 L 252.367188 49.199219 L 283.101562 49.199219 "/>
<path style=" stroke:none;fill-rule:nonzero;fill:rgb(0%,0%,0%);fill-opacity:1;" d="M 396.179688 166.144531 C 407.949219 166.144531 416.738281 163.972656 422.300781 159.6875 C 427.800781 155.449219 431.601562 148.105469 433.59375 137.859375 C 435.449219 128.285156 434.742188 121.597656 431.492188 117.988281 C 428.167969 114.304688 420.980469 112.433594 410.128906 112.433594 L 391.316406 112.433594 L 380.886719 166.144531 Z M 334.648438 232.308594 C 333.773438 232.308594 332.945312 231.917969 332.390625 231.242188 C 331.832031 230.566406 331.605469 229.675781 331.773438 228.820312 L 359.414062 86.484375 C 359.683594 85.109375 360.886719 84.113281 362.289062 84.113281 L 421.859375 84.113281 C 440.582031 84.113281 454.519531 89.203125 463.277344 99.238281 C 472.085938 109.324219 474.804688 123.429688 471.359375 141.152344 C 469.957031 148.375 467.546875 155.078125 464.195312 161.082031 C 460.839844 167.09375 456.40625 172.65625 451.011719 177.617188 C 444.558594 183.664062 437.25 188.046875 429.316406 190.628906 C 421.507812 193.175781 411.480469 194.464844 399.511719 194.464844 L 375.386719 194.464844 L 368.5 229.9375 C 368.234375 231.3125 367.027344 232.308594 365.625 232.308594 Z M 334.648438 232.308594 "/>
<path style=" stroke:none;fill-rule:nonzero;fill:rgb(100%,100%,100%);fill-opacity:1;" d="M 393.730469 115.363281 L 410.128906 115.363281 C 423.226562 115.363281 427.773438 118.238281 429.320312 119.953125 C 431.882812 122.796875 432.367188 128.796875 430.71875 137.300781 C 428.867188 146.824219 425.433594 153.574219 420.515625 157.367188 C 415.476562 161.246094 407.289062 163.214844 396.179688 163.214844 L 384.4375 163.214844 Z M 421.859375 81.183594 L 362.289062 81.183594 C 359.484375 81.183594 357.078125 83.171875 356.542969 85.925781 L 328.902344 228.257812 C 328.566406 229.976562 329.019531 231.753906 330.128906 233.105469 C 331.242188 234.453125 332.898438 235.234375 334.648438 235.234375 L 365.625 235.234375 C 368.429688 235.234375 370.839844 233.246094 371.375 230.496094 L 377.800781 197.394531 L 399.511719 197.394531 C 411.785156 197.394531 422.121094 196.054688 430.226562 193.414062 C 438.558594 190.703125 446.230469 186.105469 453.015625 179.753906 C 458.628906 174.585938 463.25 168.789062 466.75 162.511719 C 470.253906 156.238281 472.773438 149.238281 474.234375 141.710938 C 477.859375 123.054688 474.914062 108.113281 465.480469 97.308594 C 456.140625 86.609375 441.464844 81.183594 421.859375 81.183594 M 377.335938 169.074219 L 396.179688 169.074219 C 408.667969 169.074219 417.972656 166.71875 424.085938 162.007812 C 430.203125 157.296875 434.324219 149.4375 436.464844 138.417969 C 438.515625 127.839844 437.582031 120.375 433.664062 116.027344 C 429.742188 111.679688 421.898438 109.503906 410.128906 109.503906 L 388.902344 109.503906 L 377.335938 169.074219 M 421.859375 87.042969 C 439.78125 87.042969 452.855469 91.75 461.074219 101.164062 C 469.292969 110.578125 471.765625 123.722656 468.484375 140.59375 C 467.136719 147.542969 464.855469 153.898438 461.640625 159.65625 C 458.425781 165.414062 454.222656 170.683594 449.03125 175.460938 C 442.847656 181.253906 435.976562 185.382812 428.414062 187.839844 C 420.851562 190.308594 411.21875 191.535156 399.511719 191.535156 L 372.972656 191.535156 L 365.625 229.375 L 334.648438 229.375 L 362.289062 87.042969 L 421.859375 87.042969 "/>
</g>
</svg>
