<?xml version="1.0" encoding="UTF-8"?>
<svg xmlns="http://www.w3.org/2000/svg" xmlns:xlink="http://www.w3.org/1999/xlink" width="691pt" height="300pt" viewBox="0 0 691 300" version="1.1">
<g id="surface1">
<path style=" stroke:none;fill-rule:nonzero;fill:rgb(30.980392%,63.921569%,83.137255%);fill-opacity:1;" d="M 92.667969 259.367188 C 85.902344 257.039062 80.882812 252.304688 77.539062 245.386719 C 76.082031 242.257812 76.011719 240.875 75.644531 211.894531 C 75.28125 182.839844 75.210938 181.527344 73.683594 178.253906 C 71.5 173.519531 66.917969 168.785156 62.261719 166.527344 C 58.84375 164.855469 56.953125 164.492188 48.953125 164.054688 L 39.640625 163.472656 L 39.640625 139.441406 L 48.878906 138.933594 C 56.878906 138.496094 58.699219 138.132812 62.191406 136.457031 C 66.917969 134.125 71.5 129.464844 73.683594 124.660156 C 75.210938 121.382812 75.28125 120.074219 75.644531 91.019531 L 76.011719 60.800781 L 78.046875 56.652344 C 80.59375 51.40625 84.8125 47.183594 90.046875 44.636719 C 94.195312 42.597656 94.265625 42.597656 109.46875 42.597656 L 124.742188 42.597656 L 124.742188 66.625 L 112.742188 66.992188 L 100.742188 67.355469 L 100.375 101.214844 L 100.011719 135.074219 L 97.832031 139.003906 C 95.285156 143.664062 90.484375 148.035156 86.121094 149.707031 C 84.375 150.363281 82.921875 151.164062 82.921875 151.457031 C 82.921875 151.746094 84.375 152.546875 86.121094 153.203125 C 90.484375 154.878906 95.285156 159.246094 97.832031 163.90625 L 100.011719 167.839844 L 100.375 201.699219 L 100.742188 235.558594 L 124.742188 236.285156 L 124.742188 260.316406 L 110.558594 260.460938 C 98.558594 260.605469 95.792969 260.460938 92.667969 259.367188 Z M 535.707031 259.804688 C 535.488281 259.222656 535.414062 253.761719 535.488281 247.574219 L 535.707031 236.285156 L 547.707031 235.921875 L 559.710938 235.558594 L 560.4375 167.839844 L 562.621094 163.90625 C 565.164062 159.246094 569.964844 154.878906 574.332031 153.203125 C 576.074219 152.546875 577.53125 151.746094 577.53125 151.457031 C 577.53125 151.164062 576.074219 150.363281 574.332031 149.707031 C 569.964844 148.035156 565.164062 143.664062 562.621094 139.003906 L 560.4375 135.074219 L 559.710938 67.355469 L 547.707031 66.992188 L 535.707031 66.625 L 535.707031 42.597656 L 550.980469 42.597656 C 566.183594 42.597656 566.257812 42.597656 570.402344 44.636719 C 575.640625 47.183594 579.859375 51.40625 582.402344 56.652344 L 584.441406 60.800781 L 584.804688 91.019531 C 585.167969 120.074219 585.242188 121.382812 586.769531 124.660156 C 588.949219 129.464844 593.53125 134.125 598.261719 136.457031 C 601.75 138.132812 603.570312 138.496094 611.570312 138.933594 L 620.808594 139.441406 L 620.808594 163.472656 L 611.5 164.054688 C 603.496094 164.492188 601.605469 164.855469 598.1875 166.527344 C 593.53125 168.785156 588.949219 173.519531 586.769531 178.253906 C 585.242188 181.527344 585.167969 182.839844 584.804688 211.894531 L 584.441406 242.113281 L 582.402344 246.261719 C 579.859375 251.503906 575.640625 255.726562 570.402344 258.277344 C 566.328125 260.242188 565.964844 260.316406 551.128906 260.535156 C 538.90625 260.753906 535.996094 260.605469 535.707031 259.804688 Z M 262.578125 184.078125 C 256.398438 181.601562 254.652344 180.65625 252.179688 178.472656 C 249.269531 175.847656 245.851562 169.367188 245.851562 166.382812 C 245.851562 164.636719 245.996094 164.5625 251.523438 164.5625 L 257.199219 164.5625 L 258.144531 167.839844 C 260.179688 174.902344 270 178.398438 277.492188 174.757812 C 281.128906 173.007812 282.582031 170.605469 282.4375 166.601562 C 282.21875 161.796875 279.308594 159.613281 268.398438 155.898438 C 254.871094 151.238281 249.269531 146.359375 248.324219 138.277344 C 247.667969 132.304688 248.976562 128.375 253.125 124.441406 C 258.070312 119.5625 263.160156 117.816406 271.597656 118.035156 C 275.234375 118.105469 278.726562 118.398438 279.308594 118.6875 C 279.890625 118.980469 281.5625 119.707031 282.945312 120.363281 C 289.054688 122.914062 294.148438 130.046875 293.710938 135.292969 L 293.492188 137.914062 L 288.621094 137.839844 C 282.800781 137.695312 282.21875 137.402344 282.21875 134.78125 C 282.21875 130.996094 276.328125 126.699219 271.089844 126.699219 C 267.746094 126.699219 263.527344 128.226562 261.851562 129.976562 C 260.980469 130.921875 260.105469 132.960938 259.890625 134.5625 C 259.308594 138.785156 261.488281 141.992188 266.363281 144.101562 C 268.472656 145.046875 270.800781 146.066406 271.453125 146.433594 C 272.179688 146.796875 273.273438 147.085938 273.855469 147.085938 C 274.4375 147.085938 275.527344 147.378906 276.253906 147.742188 C 276.910156 148.105469 279.308594 149.199219 281.492188 150.21875 C 286.4375 152.402344 289.785156 155.167969 292.109375 158.8125 C 294.585938 162.742188 294.65625 171.625 292.183594 175.632812 C 289.929688 179.417969 285.710938 182.476562 281.054688 183.859375 C 276.617188 185.167969 265.636719 185.242188 262.578125 184.078125 Z M 141.835938 183.132812 L 141.835938 151.3125 L 141.765625 119.78125 L 156.746094 119.636719 C 172.023438 119.492188 172.53125 119.5625 178.859375 122.621094 C 184.679688 125.386719 187.660156 130.847656 187.660156 138.785156 C 187.660156 145.777344 184.460938 151.457031 178.496094 155.167969 C 176.824219 156.1875 176.167969 156.992188 176.605469 157.574219 C 177.332031 158.445312 180.53125 164.273438 185.84375 174.394531 C 187.734375 178.035156 189.550781 181.238281 189.914062 181.675781 C 191.371094 183.132812 190.28125 183.496094 184.167969 183.496094 L 177.839844 183.496094 L 171.585938 171.335938 L 165.402344 159.101562 L 153.109375 159.101562 L 152.820312 183.132812 L 147.363281 183.347656 C 144.308594 183.496094 141.835938 183.347656 141.835938 183.132812 Z M 170.566406 148.542969 C 175.804688 145.847656 177.695312 138.203125 174.351562 133.179688 C 171.660156 129.175781 168.386719 128.082031 160.167969 128.300781 L 153.109375 128.519531 L 152.894531 138.277344 C 152.820312 143.664062 152.894531 148.542969 153.109375 149.125 C 153.621094 150.507812 167.511719 150.074219 170.566406 148.542969 Z M 198.570312 183.132812 L 198.570312 151.3125 L 198.5 119.78125 L 240.25 119.78125 L 240.25 127.792969 L 225.046875 128.15625 L 209.847656 128.519531 L 209.847656 145.265625 L 223.15625 145.484375 L 236.394531 145.632812 L 236.394531 154.367188 L 223.15625 154.515625 L 209.847656 154.734375 L 209.847656 174.394531 L 225.339844 174.613281 L 240.757812 174.757812 L 240.757812 183.496094 L 219.664062 183.496094 C 208.101562 183.496094 198.570312 183.347656 198.570312 183.132812 Z M 318.441406 156.042969 L 318.222656 128.519531 L 308.257812 128.300781 L 298.222656 128.082031 L 298.222656 119.417969 L 349.863281 119.417969 L 349.863281 128.15625 L 330.226562 128.15625 L 330.226562 183.496094 L 318.585938 183.496094 Z M 370.230469 183.132812 C 370.230469 182.765625 371.976562 177.960938 373.140625 175.121094 C 373.429688 174.320312 375.105469 170.097656 376.777344 165.65625 C 378.449219 161.285156 380.121094 156.992188 380.414062 156.1875 C 380.703125 155.386719 381.722656 152.765625 382.597656 150.363281 C 383.46875 147.960938 384.488281 145.339844 384.777344 144.539062 C 385.070312 143.738281 386.085938 141.117188 386.960938 138.714844 C 387.832031 136.3125 388.851562 133.6875 389.140625 132.886719 C 389.433594 132.085938 390.453125 129.464844 391.324219 127.0625 C 394.304688 118.90625 393.871094 119.34375 399.542969 119.5625 C 403.179688 119.707031 404.78125 120.074219 405.144531 120.875 C 405.945312 122.476562 407.035156 125.097656 408.78125 129.976562 C 409.652344 132.378906 410.671875 135 410.964844 135.800781 C 411.253906 136.601562 412.273438 139.222656 413.144531 141.625 C 414.019531 144.027344 415.035156 146.722656 415.398438 147.667969 C 415.765625 148.542969 416.34375 150 416.710938 150.945312 C 417 151.820312 417.65625 153.347656 418.089844 154.367188 C 418.453125 155.386719 419.546875 158.15625 420.417969 160.558594 C 421.292969 162.960938 422.308594 165.582031 422.601562 166.382812 C 422.890625 167.183594 423.910156 169.804688 424.78125 172.207031 C 426.675781 177.378906 427.621094 179.78125 428.492188 181.457031 C 428.855469 182.183594 429.148438 182.914062 429.148438 183.132812 C 429.148438 183.347656 426.3125 183.421875 422.890625 183.347656 L 416.636719 183.132812 L 415.253906 179.125 C 414.527344 176.941406 413.363281 173.738281 412.707031 172.0625 L 411.546875 168.933594 L 387.761719 168.933594 L 386.742188 170.972656 C 386.234375 172.0625 385.285156 174.394531 384.777344 176.214844 C 384.269531 178.035156 383.542969 179.78125 383.175781 180.21875 C 382.886719 180.582031 382.597656 181.457031 382.597656 182.183594 C 382.597656 183.347656 381.867188 183.496094 376.414062 183.496094 C 372.996094 183.496094 370.230469 183.347656 370.230469 183.132812 Z M 408.054688 159.683594 C 408.054688 158.664062 399.761719 134.707031 399.398438 134.707031 C 399.179688 134.707031 397.507812 139.222656 395.761719 144.757812 C 393.941406 150.21875 392.269531 155.097656 391.980469 155.460938 C 391.46875 156.1875 391.035156 158.519531 391.25 159.683594 C 391.324219 160.265625 408.054688 160.265625 408.054688 159.683594 Z M 435.695312 183.132812 L 435.695312 151.3125 L 435.621094 119.78125 L 451.1875 119.636719 C 461.878906 119.5625 467.480469 119.78125 469.296875 120.363281 C 473.953125 121.964844 478.316406 125.316406 480.863281 129.101562 C 483.261719 132.742188 483.335938 133.179688 483.335938 139.804688 C 483.335938 146.066406 483.117188 147.085938 481.300781 150.144531 C 480.207031 152.039062 478.246094 154.441406 476.933594 155.386719 C 472.207031 159.027344 469.445312 159.683594 457.878906 160.121094 L 446.96875 160.558594 L 446.824219 171.84375 L 446.75 183.132812 L 441.222656 183.347656 C 438.167969 183.496094 435.695312 183.347656 435.695312 183.132812 Z M 465.007812 150.582031 C 465.878906 150.144531 467.117188 149.5625 467.625 149.273438 C 470.316406 148.035156 471.699219 144.902344 471.699219 139.953125 C 471.625 133.980469 470.390625 131.796875 465.808594 129.613281 C 462.96875 128.300781 461.441406 128.15625 454.75 128.300781 L 446.96875 128.519531 L 446.75 139.078125 C 446.675781 144.832031 446.75 150 446.894531 150.507812 C 447.40625 151.746094 462.605469 151.820312 465.007812 150.582031 Z M 494.609375 183.132812 L 494.609375 119.78125 L 506.25 119.34375 L 506.25 183.496094 L 500.429688 183.496094 C 497.230469 183.496094 494.609375 183.347656 494.609375 183.132812 Z M 343.316406 155.824219 L 343.316406 151.457031 L 366.59375 151.457031 L 366.59375 160.195312 L 343.316406 160.195312 Z M 343.316406 155.824219 "/>
</g>
</svg>
